<svg width="71" height="70" viewBox="0 0 71 70" fill="none" xmlns="http://www.w3.org/2000/svg">
<path d="M35.407 70C54.9617 70 70.814 54.33 70.814 35C70.814 15.67 54.9617 0 35.407 0C15.8522 0 0 15.67 0 35C0 54.33 15.8522 70 35.407 70Z" fill="white"/>
<path d="M25.0143 19.1408C26.5411 19.1408 27.9347 19.2752 29.1952 19.5412C30.4556 19.8072 31.532 20.244 32.4299 20.8516C33.3279 21.4592 34.0247 22.2656 34.5204 23.2736C35.0161 24.2816 35.2625 25.5248 35.2625 27.006C35.2625 28.6048 34.8943 29.9376 34.1606 31.0044C33.427 32.0712 32.3393 32.9448 30.9032 33.6252C32.8803 34.188 34.3561 35.1736 35.3305 36.5792C36.3049 37.9848 36.7921 39.6816 36.7921 41.6668C36.7921 43.2656 36.4777 44.6516 35.8488 45.822C35.22 46.9924 34.3731 47.9472 33.308 48.6864C32.243 49.4284 31.0307 49.9744 29.6682 50.33C28.2972 50.6856 26.8838 50.8648 25.4675 50.862H9.91394V19.1408H25.0143ZM24.1164 31.9788C25.374 31.9788 26.4079 31.682 27.218 31.0912C28.0281 30.4976 28.4332 29.5372 28.4304 28.2044C28.4304 27.4652 28.2944 26.8576 28.0253 26.3844C27.7562 25.9112 27.3965 25.5388 26.9461 25.2728C26.4957 25.0068 25.9802 24.822 25.3967 24.7184C24.7962 24.6148 24.1872 24.5616 23.5754 24.5644H16.9727V31.9844L24.1164 31.9788ZM24.5214 45.4384C25.1871 45.4412 25.8499 45.374 26.4986 45.2396C27.1274 45.1052 27.6826 44.884 28.1613 44.5732C28.64 44.2624 29.0224 43.8396 29.3085 43.3076C29.5917 42.7756 29.7362 42.0924 29.7362 41.2636C29.7362 39.6368 29.2716 38.472 28.3426 37.7776C27.4135 37.0804 26.1842 36.7332 24.6574 36.7332H16.9727V45.4412L24.5214 45.4384ZM45.6693 44.772C46.6267 45.6904 48.0062 46.1496 49.8048 46.1496C51.0937 46.1496 52.2012 45.8304 53.1303 45.1948C54.0593 44.5592 54.6287 43.8844 54.8383 43.1732H60.4553C59.5573 45.9284 58.1779 47.8968 56.3197 49.0812C54.4616 50.2656 52.2154 50.8592 49.5782 50.8592C47.7512 50.8592 46.1027 50.5708 44.6354 49.994C43.1682 49.4172 41.9247 48.594 40.905 47.5272C39.8852 46.4604 39.0978 45.1892 38.5454 43.708C37.9931 42.2268 37.7155 40.5972 37.7155 38.822C37.7155 37.1056 37.9987 35.5068 38.5681 34.0256C39.1374 32.5444 39.9475 31.2648 40.9956 30.184C42.0436 29.1032 43.2956 28.252 44.7487 27.6304C46.2018 27.0088 47.8136 26.698 49.5811 26.698C51.5582 26.698 53.2804 27.076 54.7505 27.832C56.2178 28.588 57.4244 29.6016 58.3677 30.8756C59.3109 32.1496 59.9936 33.6 60.4128 35.2296C60.832 36.8592 60.9821 38.5616 60.8632 40.3396H44.1001C44.1879 42.3752 44.7119 43.8564 45.6693 44.772ZM52.8838 32.69C52.119 31.8612 50.9577 31.4468 49.3998 31.4468C48.3801 31.4468 47.5331 31.6176 46.8618 31.9564C46.1877 32.298 45.6495 32.718 45.2444 33.222C44.8394 33.726 44.5561 34.258 44.3918 34.8208C44.2275 35.3836 44.1284 35.8876 44.1001 36.33H54.4814C54.1783 34.734 53.6458 33.5188 52.8838 32.69ZM43.0067 20.7508H55.977V24.3068H43.0067V20.7508Z" fill="#535353"/>
</svg>
