<svg width="72" height="70" viewBox="0 0 72 70" fill="none" xmlns="http://www.w3.org/2000/svg">
<path fill-rule="evenodd" clip-rule="evenodd" d="M35.8789 0.131918C27.3614 0.123267 19.1192 3.14598 12.6294 8.65838C6.13955 14.1708 1.82624 21.8126 0.462485 30.2142C-0.901268 38.6159 0.773671 47.2283 5.1871 54.508C9.60054 61.7877 16.464 67.2589 24.5475 69.9411C26.3297 70.2709 26.9898 69.1496 26.9898 68.2041C26.9898 67.2587 26.9898 65.104 26.9898 62.1137C17.0226 64.3124 14.9103 57.3205 14.9103 57.3205C14.2462 55.1535 12.8352 53.2917 10.9279 52.0656C7.69346 49.8669 11.1919 49.8669 11.1919 49.8669C12.3257 50.0269 13.4081 50.4426 14.3573 51.0826C15.3065 51.7226 16.0976 52.57 16.6706 53.5607C17.1574 54.4428 17.8137 55.2202 18.6019 55.8482C19.3901 56.4762 20.2947 56.9425 21.2637 57.2203C22.2327 57.4982 23.247 57.5821 24.2485 57.4672C25.2501 57.3523 26.219 57.041 27.0998 56.551C27.2379 54.7422 28.0182 53.0423 29.3001 51.7578C21.3351 50.8563 12.9741 47.7781 12.9741 34.0581C12.9194 30.5027 14.235 27.0625 16.6485 24.4497C15.5714 21.3587 15.6971 17.9759 17.0006 14.9732C17.0006 14.9732 20.0149 14.0058 26.8578 18.6451C32.7338 17.0329 38.936 17.0329 44.812 18.6451C51.6548 14.0058 54.6472 14.9732 54.6472 14.9732C55.9643 17.9717 56.0979 21.3569 55.0212 24.4497C57.4347 27.0625 58.7503 30.5027 58.6956 34.0581C58.6956 47.822 50.3126 50.8343 42.3256 51.6478C43.1821 52.5081 43.8434 53.5424 44.2648 54.6804C44.6862 55.8185 44.8578 57.0338 44.7679 58.2439C44.7679 63.0372 44.7679 66.9069 44.7679 68.0722C44.7679 69.2375 45.406 70.139 47.2323 69.8092C55.2903 67.1017 62.1239 61.6218 66.5142 54.3469C70.9044 47.072 72.5659 38.4752 71.2021 30.0898C69.8384 21.7045 65.5381 14.0759 59.0684 8.56471C52.5987 3.05353 44.3802 0.0181576 35.8789 0V0.131918Z" fill="white"/>
</svg>
